<svg width="92" height="16" viewBox="0 0 92 16" fill="none" xmlns="http://www.w3.org/2000/svg">
<g id="Group 5835">
<path id="Star 1" d="M7.10616 1.20359C7.50337 0.624014 8.3587 0.624014 8.75591 1.20359L10.5271 3.7879C10.6571 3.97764 10.8485 4.11674 11.0692 4.18178L14.0743 5.06764C14.7483 5.26631 15.0126 6.07977 14.5841 6.63664L12.6736 9.1197C12.5333 9.30199 12.4602 9.52707 12.4665 9.757L12.5527 12.8888C12.572 13.5912 11.88 14.0939 11.218 13.8585L8.26608 12.8088C8.04936 12.7317 7.8127 12.7317 7.59599 12.8088L4.64407 13.8585C3.98206 14.0939 3.29009 13.5912 3.30941 12.8888L3.39554 9.757C3.40187 9.52707 3.32873 9.30199 3.18847 9.1197L1.27795 6.63664C0.849489 6.07977 1.1138 5.26631 1.78775 5.06764L4.7929 4.18178C5.01352 4.11674 5.20499 3.97764 5.33502 3.7879L7.10616 1.20359Z" fill="#FFA800"/>
<path id="Star 2" d="M26.1406 1.20359C26.5379 0.624014 27.3932 0.624014 27.7904 1.20359L29.5615 3.7879C29.6916 3.97764 29.883 4.11674 30.1037 4.18178L33.1088 5.06764C33.7828 5.26631 34.0471 6.07977 33.6186 6.63664L31.7081 9.1197C31.5678 9.30199 31.4947 9.52707 31.501 9.757L31.5871 12.8888C31.6065 13.5912 30.9145 14.0939 30.2525 13.8585L27.3006 12.8088C27.0838 12.7317 26.8472 12.7317 26.6305 12.8088L23.6786 13.8585C23.0165 14.0939 22.3246 13.5912 22.3439 12.8888L22.43 9.757C22.4363 9.52707 22.3632 9.30199 22.223 9.1197L20.3124 6.63664C19.884 6.07977 20.1483 5.26631 20.8222 5.06764L23.8274 4.18178C24.048 4.11674 24.2395 3.97764 24.3695 3.7879L26.1406 1.20359Z" fill="#FFA800"/>
<path id="Star 3" d="M45.1751 1.20359C45.5723 0.624014 46.4277 0.624014 46.8249 1.20359L48.596 3.7879C48.7261 3.97764 48.9175 4.11674 49.1381 4.18178L52.1433 5.06764C52.8172 5.26631 53.0815 6.07977 52.6531 6.63664L50.7426 9.1197C50.6023 9.30199 50.5292 9.52707 50.5355 9.757L50.6216 12.8888C50.641 13.5912 49.949 14.0939 49.287 13.8585L46.3351 12.8088C46.1183 12.7317 45.8817 12.7317 45.665 12.8088L42.713 13.8585C42.051 14.0939 41.3591 13.5912 41.3784 12.8888L41.4645 9.757C41.4708 9.52707 41.3977 9.30199 41.2574 9.1197L39.3469 6.63664C38.9185 6.07977 39.1828 5.26631 39.8567 5.06764L42.8619 4.18178C43.0825 4.11674 43.274 3.97764 43.404 3.7879L45.1751 1.20359Z" fill="#FFA800"/>
<path id="Star 4" d="M64.2096 1.20359C64.6068 0.624014 65.4622 0.624014 65.8594 1.20359L67.6305 3.7879C67.7605 3.97764 67.952 4.11674 68.1726 4.18178L71.1778 5.06764C71.8517 5.26631 72.116 6.07977 71.6876 6.63664L69.7771 9.1197C69.6368 9.30199 69.5637 9.52707 69.57 9.757L69.6561 12.8888C69.6754 13.5912 68.9835 14.0939 68.3214 13.8585L65.3695 12.8088C65.1528 12.7317 64.9162 12.7317 64.6994 12.8088L61.7475 13.8585C61.0855 14.0939 60.3935 13.5912 60.4129 12.8888L60.499 9.757C60.5053 9.52707 60.4322 9.30199 60.2919 9.1197L58.3814 6.63664C57.9529 6.07977 58.2173 5.26631 58.8912 5.06764L61.8964 4.18178C62.117 4.11674 62.3084 3.97764 62.4385 3.7879L64.2096 1.20359Z" fill="#FFA800"/>
<path id="Star 5" d="M83.2441 1.20359C83.6413 0.624014 84.4966 0.624014 84.8938 1.20359L86.665 3.7879C86.795 3.97764 86.9865 4.11674 87.2071 4.18178L90.2123 5.06764C90.8862 5.26631 91.1505 6.07977 90.7221 6.63664L88.8115 9.1197C88.6713 9.30199 88.5981 9.52707 88.6045 9.757L88.6906 12.8888C88.7099 13.5912 88.0179 14.0939 87.3559 13.8585L84.404 12.8088C84.1873 12.7317 83.9506 12.7317 83.7339 12.8088L80.782 13.8585C80.12 14.0939 79.428 13.5912 79.4473 12.8888L79.5335 9.757C79.5398 9.52707 79.4667 9.30199 79.3264 9.1197L77.4159 6.63664C76.9874 6.07977 77.2517 5.26631 77.9257 5.06764L80.9308 4.18178C81.1515 4.11674 81.3429 3.97764 81.473 3.7879L83.2441 1.20359Z" fill="#FFA800"/>
</g>
</svg>
