<svg width="24" height="24" viewBox="0 0 24 24" fill="none" xmlns="http://www.w3.org/2000/svg">
<g clip-path="url(#clip0_1_12740)">
<path d="M24 12V3.03736L21.8671 5.17027C19.7007 2.04628 16.0896 0 12 0L9.1875 3.20541L12 6.41081C14.3322 6.41081 16.3305 7.83942 17.1683 9.86911L15.0374 12H24Z" fill="#2891CC"/>
<path d="M3.03736 0L5.17027 2.13291C2.04628 4.29933 0 7.91039 0 12L3.20541 14.1094L6.41081 12C6.41081 9.66778 7.83942 7.66955 9.86916 6.83175L12 8.96264V0H3.03736Z" fill="#3BB6FB"/>
<path d="M6.83175 14.1309L8.96264 12H0V20.9626L2.13291 18.8297C4.29933 21.9537 7.91039 24 12 24V17.5892C9.66778 17.5892 7.66955 16.1606 6.83175 14.1309Z" fill="#EBEBEB"/>
</g>
<defs>
<clipPath id="clip0_1_12740">
<rect width="24" height="24" fill="white"/>
</clipPath>
</defs>
</svg>
