<svg xmlns="http://www.w3.org/2000/svg" width="60" height="60" viewBox="0 0 60 60" fill="none">
  <path d="M49.7461 9.59009C49.0992 9.59009 48.5742 10.1151 48.5742 10.762C48.5742 11.4088 49.0992 11.9338 49.7461 11.9338C50.393 11.9338 50.918 11.4088 50.918 10.762C50.918 10.115 50.393 9.59009 49.7461 9.59009Z" fill="url(#paint0_linear_1_13060)"/>
  <path d="M55.8349 8.40944C53.0382 5.26612 49.1591 3.53503 44.9121 3.53503C40.2681 3.53503 36.0303 5.33515 32.6573 8.74085C31.4844 9.92503 30.6077 11.1082 30 12.0471C29.3923 11.1083 28.5156 9.92526 27.3427 8.74085C23.9696 5.33503 19.732 3.53491 15.0879 3.53491C6.19852 3.53491 0 10.9717 0 19.8135C0 31.7571 12.6567 41.8135 29.2325 56.1787C29.4527 56.3696 29.7264 56.465 30 56.465C30.2736 56.465 30.5473 56.3696 30.7675 56.1787C47.3828 41.7792 60 31.7404 60 19.8135C60 15.4782 58.5209 11.4282 55.8349 8.40944ZM30 53.743C14.3474 40.198 2.34375 30.4695 2.34375 19.8135C2.34375 11.8694 7.8225 5.87878 15.0879 5.87878C19.122 5.87878 22.6654 7.37714 25.6196 10.332C27.8704 12.5832 28.9205 14.8807 28.9308 14.9036C29.1193 15.324 29.5373 15.594 29.9982 15.5949C29.9989 15.5949 29.9998 15.5949 30.0005 15.5949C30.4613 15.5949 30.8798 15.3239 31.0693 14.9036C31.0796 14.8807 32.1298 12.5833 34.3805 10.332C37.3346 7.37702 40.878 5.87878 44.9122 5.87878C52.1776 5.87878 57.6564 11.8694 57.6564 19.8135C57.6562 30.7101 44.8605 40.8834 30 53.743Z" fill="url(#paint1_linear_1_13060)"/>
  <path d="M53.8449 13.7648C53.5443 13.1915 52.8359 12.9707 52.2628 13.2712C51.6897 13.5718 51.4686 14.2801 51.7692 14.8532C52.5428 16.3283 52.9688 18.0898 52.9688 19.8134C52.9688 23.1997 51.3571 26.7937 47.8966 31.124C47.4926 31.6296 47.575 32.367 48.0805 32.7711C48.5893 33.1777 49.3261 33.0896 49.7276 32.5872C53.5378 27.8191 55.3125 23.7601 55.3125 19.8134C55.3125 17.6872 54.805 15.5956 53.8449 13.7648Z" fill="url(#paint2_linear_1_13060)"/>
  <path d="M41.25 25.9963H34.6875V19.4338C34.6875 18.7866 34.1629 18.262 33.5156 18.262H26.4844C25.8371 18.262 25.3125 18.7866 25.3125 19.4338V25.9963H18.75C18.1028 25.9963 17.5781 26.521 17.5781 27.1682V34.1995C17.5781 34.8467 18.1028 35.3713 18.75 35.3713H25.3125V41.9338C25.3125 42.5811 25.8371 43.1057 26.4844 43.1057H33.5156C34.1629 43.1057 34.6875 42.5811 34.6875 41.9338V35.3713H41.25C41.8972 35.3713 42.4219 34.8467 42.4219 34.1995V27.1682C42.4219 26.521 41.8972 25.9963 41.25 25.9963ZM40.0781 33.0275H33.5156C32.8684 33.0275 32.3438 33.5521 32.3438 34.1993V40.7618H27.6562V34.1993C27.6562 33.5521 27.1316 33.0275 26.4844 33.0275H19.9219V28.34H26.4844C27.1316 28.34 27.6562 27.8153 27.6562 27.1681V20.6056H32.3438V27.1681C32.3438 27.8153 32.8684 28.34 33.5156 28.34H40.0781V33.0275Z" fill="url(#paint3_linear_1_13060)"/>
  <defs>
    <linearGradient id="paint0_linear_1_13060" x1="48.5742" y1="10.7667" x2="50.918" y2="10.7667" gradientUnits="userSpaceOnUse">
      <stop stop-color="#50C577"/>
      <stop offset="1" stop-color="#2DBEFC"/>
    </linearGradient>
    <linearGradient id="paint1_linear_1_13060" x1="-4.69548e-07" y1="30.1071" x2="60" y2="30.1071" gradientUnits="userSpaceOnUse">
      <stop stop-color="#50C577"/>
      <stop offset="1" stop-color="#2DBEFC"/>
    </linearGradient>
    <linearGradient id="paint2_linear_1_13060" x1="47.6402" y1="23.1226" x2="55.3125" y2="23.1226" gradientUnits="userSpaceOnUse">
      <stop stop-color="#50C577"/>
      <stop offset="1" stop-color="#2DBEFC"/>
    </linearGradient>
    <linearGradient id="paint3_linear_1_13060" x1="17.5781" y1="30.7341" x2="42.4219" y2="30.7341" gradientUnits="userSpaceOnUse">
      <stop stop-color="#50C577"/>
      <stop offset="1" stop-color="#2DBEFC"/>
    </linearGradient>
  </defs>
</svg>