<svg xmlns="http://www.w3.org/2000/svg" width="50" height="50" viewBox="0 0 50 50" fill="none">
  <g clip-path="url(#clip0_1_12808)">
    <path d="M24.9993 17.188C27.7555 17.188 29.998 14.9456 29.998 12.1894C29.998 9.43328 27.7555 7.19092 24.9993 7.19092C22.2439 7.19092 20.0022 9.43328 20.0022 12.1894C20.0022 14.9456 22.2439 17.188 24.9993 17.188Z" fill="white"/>
    <path d="M44.6495 4.77865C44.6495 4.16434 44.1561 3.66607 43.5441 3.65673V2.38583C43.5441 1.53857 42.8549 0.849329 42.0078 0.849329C41.7689 0.849329 41.5436 0.905676 41.3418 1.00332C41.0141 0.40603 40.3793 0 39.6514 0C38.5891 0 37.7246 0.864375 37.7246 1.9267V3.65584H36.6867C36.4222 2.81133 35.6324 2.19673 34.7018 2.19673C33.7712 2.19673 32.9815 2.81133 32.717 3.65584H17.2827C17.0182 2.81133 16.2285 2.19673 15.2979 2.19673C14.3674 2.19673 13.5778 2.81133 13.3132 3.65584H12.2753V1.9267C12.2754 0.864375 11.411 0 10.3488 0C9.62081 0 8.98615 0.40603 8.65849 1.00332C8.45661 0.905676 8.23112 0.849329 7.99236 0.849329C7.1453 0.849329 6.45596 1.53867 6.45596 2.38583V3.65663C5.84391 3.66597 5.35046 4.16434 5.35046 4.77865C5.35046 5.39295 5.84401 5.89112 6.45586 5.90046V7.17126C6.45586 8.01843 7.1452 8.70767 7.99226 8.70767C8.23112 8.70767 8.45651 8.65132 8.6582 8.55377C8.98605 9.15096 9.62071 9.55699 10.3487 9.55699C11.411 9.55699 12.2753 8.69272 12.2753 7.63039V5.90135H13.2186V14.1336C13.2186 15.1564 13.712 16.3872 14.4179 17.1266L18.9533 21.8761V47.4761C18.9533 48.8678 20.0855 50.0001 21.4772 50.0001C22.8689 50.0001 24.0012 48.8678 24.0012 47.4761V34.8619H25.993V47.4591C25.993 48.8507 27.1252 49.983 28.5169 49.983C29.9085 49.983 31.0407 48.8507 31.0407 47.4591L31.0466 21.8761L35.5821 17.1265C36.2882 16.3869 36.7813 15.1561 36.7813 14.1335V5.90135H37.7246V7.6302C37.7246 8.69262 38.5891 9.55699 39.6514 9.55699C40.3793 9.55699 41.0139 9.15096 41.3417 8.55367C41.5436 8.65132 41.7689 8.70767 42.0077 8.70767C42.8548 8.70767 43.544 8.01843 43.544 7.17126V5.90046C44.1561 5.89112 44.6495 5.39295 44.6495 4.77865ZM32.6225 14.0897C32.6106 14.1405 32.5701 14.2412 32.5435 14.2867L28.6136 18.4023H21.3864L17.4564 14.2866C17.4298 14.2413 17.3892 14.1406 17.3773 14.0897V5.90125H32.6224V14.0897H32.6225Z" fill="white"/>
  </g>
  <defs>
    <clipPath id="clip0_1_12808">
      <rect width="50" height="50" fill="white"/>
    </clipPath>
  </defs>
</svg>