<svg xmlns="http://www.w3.org/2000/svg" width="50" height="50" viewBox="0 0 50 50" fill="none">
  <g clip-path="url(#clip0_1_12804)">
    <path d="M49.3522 23.2475C48.913 22.7297 38.4174 10.5825 25.0005 10.5825C11.5831 10.5825 1.08803 22.7297 0.64784 23.248C-0.215787 24.2635 -0.215787 25.7369 0.648348 26.7533C1.08803 27.2712 11.5831 39.4178 25.0005 39.4178C38.4174 39.4178 48.913 27.2702 49.3527 26.7523C50.2163 25.7369 50.2163 24.2635 49.3522 23.2475ZM29.0988 17.8794C30.001 17.3869 31.2591 17.952 31.9085 19.1411C32.5579 20.3307 32.3528 21.6944 31.4505 22.1869C30.5488 22.6799 29.2902 22.1143 28.6403 20.9252C27.9915 19.7356 28.1961 18.3719 29.0988 17.8794ZM25.0005 35.0169C15.628 35.0169 7.74065 27.819 5.01066 25.0002C6.85418 23.0962 11.0515 19.1975 16.4683 16.866C15.4118 18.4735 14.7923 20.3942 14.7923 22.4616C14.7923 28.0993 19.3623 32.6692 25 32.6692C30.6377 32.6692 35.2082 28.0993 35.2082 22.4616C35.2082 20.3942 34.5893 18.4735 33.5327 16.866C38.9495 19.198 43.1463 23.0962 44.9898 25.0002C42.2598 27.8205 34.3725 35.0169 25.0005 35.0169Z" fill="white"/>
  </g>
  <defs>
    <clipPath id="clip0_1_12804">
      <rect width="50" height="50" fill="white"/>
    </clipPath>
  </defs>
</svg>