<svg width="18" height="20" viewBox="0 0 18 20" fill="none" xmlns="http://www.w3.org/2000/svg">
<path d="M15.5084 4.27729C15.3734 4.20752 15.242 4.13104 15.1147 4.04813C14.7444 3.80333 14.4049 3.51489 14.1035 3.18901C13.3494 2.32613 13.0677 1.45076 12.964 0.837875H12.9681C12.8815 0.32915 12.9173 0 12.9227 0H9.48789V13.2818C9.48789 13.4602 9.48789 13.6364 9.48039 13.8106C9.48039 13.8322 9.47831 13.8522 9.47706 13.8756C9.47706 13.8851 9.47706 13.8951 9.47498 13.9051V13.9126C9.43877 14.3892 9.28601 14.8495 9.03013 15.2532C8.77425 15.6568 8.42309 15.9914 8.00755 16.2275C7.57446 16.4739 7.08464 16.6032 6.58637 16.6025C4.98603 16.6025 3.68901 15.2976 3.68901 13.686C3.68901 12.0744 4.98603 10.7695 6.58637 10.7695C6.88931 10.7692 7.19038 10.8169 7.47841 10.9107L7.48258 7.41338C6.60819 7.30043 5.71988 7.36992 4.87369 7.61747C4.02751 7.86502 3.2418 8.28524 2.56615 8.85164C1.97413 9.36603 1.47641 9.97979 1.09539 10.6653C0.950401 10.9153 0.403346 11.9198 0.337099 13.5502C0.295434 14.4755 0.573337 15.4342 0.70583 15.8305V15.8388C0.78916 16.0721 1.11206 16.8683 1.63828 17.5395C2.06261 18.078 2.56394 18.5509 3.12613 18.9432V18.9349L3.13446 18.9432C4.79729 20.0732 6.64095 19.999 6.64095 19.999C6.9601 19.9861 8.02921 19.999 9.24332 19.4236C10.5899 18.7857 11.3565 17.8354 11.3565 17.8354C11.8463 17.2675 12.2358 16.6204 12.5082 15.9217C12.819 15.1047 12.9227 14.1247 12.9227 13.7331V6.68675C12.9644 6.71175 13.5194 7.07881 13.5194 7.07881C13.5194 7.07881 14.3189 7.59129 15.5663 7.92502C16.4613 8.16251 17.6671 8.21251 17.6671 8.21251V4.80268C17.2446 4.84851 16.3867 4.71518 15.5084 4.27729Z" fill="url(#paint0_linear_1_13242)"/>
<defs>
<linearGradient id="paint0_linear_1_13242" x1="0.332886" y1="10.0405" x2="17.6671" y2="10.0405" gradientUnits="userSpaceOnUse">
<stop stop-color="#50C577"/>
<stop offset="1" stop-color="#2DBEFC"/>
</linearGradient>
</defs>
</svg>
