<svg width="20" height="14" viewBox="0 0 20 14" fill="none" xmlns="http://www.w3.org/2000/svg">
<path fill-rule="evenodd" clip-rule="evenodd" d="M17.8252 0.426695C18.6819 0.657407 19.3574 1.33276 19.5879 2.18954C20.0164 3.75447 19.9999 7.01648 19.9999 7.01648C19.9999 7.01648 19.9999 10.2619 19.5881 11.8269C19.3574 12.6836 18.682 13.3591 17.8252 13.5896C16.2602 14.0016 9.99996 14.0016 9.99996 14.0016C9.99996 14.0016 3.75609 14.0016 2.17467 13.5733C1.3179 13.3426 0.642545 12.6671 0.411833 11.8105C0 10.2619 0 7 0 7C0 7 0 3.75447 0.411833 2.18954C0.642392 1.33291 1.33438 0.640928 2.17452 0.410368C3.73961 -0.00161743 9.99981 -0.00161743 9.99981 -0.00161743C9.99981 -0.00161743 16.2602 -0.00161743 17.8252 0.426695ZM13.2122 7.00027L8.00631 9.99862V4.00191L13.2122 7.00027Z" fill="url(#paint0_linear_1_13238)"/>
<defs>
<linearGradient id="paint0_linear_1_13238" x1="-1.56516e-07" y1="7.02835" x2="20" y2="7.02835" gradientUnits="userSpaceOnUse">
<stop stop-color="#50C577"/>
<stop offset="1" stop-color="#2DBEFC"/>
</linearGradient>
</defs>
</svg>
