<svg xmlns="http://www.w3.org/2000/svg" width="20" height="20" viewBox="0 0 20 20" fill="none">
  <path fill-rule="evenodd" clip-rule="evenodd" d="M15.8041 13.842L14.8266 12.8645C14.3383 12.3761 13.5466 12.3761 13.0591 12.8645L12.2908 13.6328C12.1191 13.8045 11.8591 13.862 11.6375 13.7645C10.5241 13.277 9.42415 12.5378 8.44331 11.557C7.46665 10.5803 6.72998 9.4853 6.24165 8.37613C6.13998 8.14697 6.19915 7.8778 6.37665 7.7003L7.06498 7.01197C7.62415 6.4528 7.62415 5.66197 7.13581 5.17363L6.15831 4.19613C5.50748 3.5453 4.45248 3.5453 3.80165 4.19613L3.25831 4.73863C2.64081 5.35613 2.38331 6.24697 2.54998 7.1303C2.96165 9.3078 4.22665 11.692 6.26748 13.7328C8.30831 15.7736 10.6925 17.0386 12.87 17.4503C13.7533 17.617 14.6441 17.3595 15.2616 16.742L15.8041 16.1995C16.455 15.5486 16.455 14.4936 15.8041 13.842V13.842Z" stroke="#E57709" stroke-width="1.5" stroke-linecap="round" stroke-linejoin="round"/>
  <path d="M10.8333 5.82599C11.6924 5.81433 12.5558 6.13266 13.2116 6.78849" stroke="#E57709" stroke-width="1.5" stroke-linecap="round" stroke-linejoin="round"/>
  <path d="M15.5683 4.43188C14.2608 3.12438 12.5466 2.47021 10.8333 2.47021" stroke="#E57709" stroke-width="1.5" stroke-linecap="round" stroke-linejoin="round"/>
  <path d="M14.1742 9.16691C14.1858 8.30774 13.8675 7.44441 13.2117 6.78857" stroke="#E57709" stroke-width="1.5" stroke-linecap="round" stroke-linejoin="round"/>
  <path d="M15.5684 4.43164C16.8759 5.73914 17.53 7.45331 17.53 9.16664" stroke="#E57709" stroke-width="1.5" stroke-linecap="round" stroke-linejoin="round"/>
</svg>