<svg width="60" height="60" viewBox="0 0 60 60" fill="none" xmlns="http://www.w3.org/2000/svg">
<path d="M20.625 38.2031C19.9781 38.2031 19.4531 38.7281 19.4531 39.375C19.4531 40.0219 19.9781 40.5469 20.625 40.5469C21.2719 40.5469 21.7969 40.0219 21.7969 39.375C21.7969 38.7281 21.2719 38.2031 20.625 38.2031Z" fill="url(#paint0_linear_1_12934)"/>
<path d="M48.75 4.6875C47.4664 4.6875 36.9591 4.6875 35.7416 4.6875C35.1973 2.01633 32.8296 0 30 0C27.1704 0 24.8027 2.01633 24.2584 4.6875C23.0409 4.6875 12.5336 4.6875 11.25 4.6875C9.31148 4.6875 7.73438 6.26461 7.73438 8.20312V56.4844C7.73438 58.4229 9.31148 60 11.25 60H48.75C50.6885 60 52.2656 58.4229 52.2656 56.4844V8.20312C52.2656 6.26461 50.6885 4.6875 48.75 4.6875ZM21.7969 7.03125H25.3125C25.9596 7.03125 26.4844 6.50648 26.4844 5.85938C26.4844 3.92086 28.0615 2.34375 30 2.34375C31.9385 2.34375 33.5156 3.92086 33.5156 5.85938C33.5156 6.50648 34.0404 7.03125 34.6875 7.03125H38.2031V9.375H21.7969V7.03125ZM45.2344 11.7188V52.9688H14.7656V11.7188H45.2344ZM49.9219 56.4844C49.9219 57.1305 49.3962 57.6562 48.75 57.6562H11.25C10.6038 57.6562 10.0781 57.1305 10.0781 56.4844V8.20312C10.0781 7.55695 10.6038 7.03125 11.25 7.03125H19.4531V9.375H13.5938C12.9466 9.375 12.4219 9.89977 12.4219 10.5469V54.1406C12.4219 54.7877 12.9466 55.3125 13.5938 55.3125H46.4062C47.0534 55.3125 47.5781 54.7877 47.5781 54.1406V10.5469C47.5781 9.89977 47.0534 9.375 46.4062 9.375H40.5469V7.03125H48.75C49.3962 7.03125 49.9219 7.55695 49.9219 8.20312V56.4844Z" fill="url(#paint1_linear_1_12934)"/>
<path d="M39.375 45.2344H20.625C19.9779 45.2344 19.4531 45.7591 19.4531 46.4062C19.4531 47.0534 19.9779 47.5781 20.625 47.5781H39.375C40.0221 47.5781 40.5469 47.0534 40.5469 46.4062C40.5469 45.7591 40.0221 45.2344 39.375 45.2344Z" fill="url(#paint2_linear_1_12934)"/>
<path d="M39.375 38.2031H25.3125C24.6654 38.2031 24.1406 38.7279 24.1406 39.375C24.1406 40.0221 24.6654 40.5469 25.3125 40.5469H39.375C40.0221 40.5469 40.5469 40.0221 40.5469 39.375C40.5469 38.7279 40.0221 38.2031 39.375 38.2031Z" fill="url(#paint3_linear_1_12934)"/>
<path d="M30 17.1094C25.4768 17.1094 21.7969 20.7893 21.7969 25.3125C21.7969 29.8357 25.4768 33.5156 30 33.5156C34.5232 33.5156 38.2031 29.8357 38.2031 25.3125C38.2031 20.7893 34.5232 17.1094 30 17.1094ZM30 31.1719C26.7691 31.1719 24.1406 28.5434 24.1406 25.3125C24.1406 22.0816 26.7691 19.4531 30 19.4531C33.2309 19.4531 35.8594 22.0816 35.8594 25.3125C35.8594 28.5434 33.2309 31.1719 30 31.1719Z" fill="url(#paint4_linear_1_12934)"/>
<path d="M32.3438 24.1406H31.1719V22.9688C31.1719 22.3216 30.6471 21.7969 30 21.7969C29.3529 21.7969 28.8281 22.3216 28.8281 22.9688V24.1406H27.6562C27.0091 24.1406 26.4844 24.6654 26.4844 25.3125C26.4844 25.9596 27.0091 26.4844 27.6562 26.4844H28.8281V27.6562C28.8281 28.3034 29.3529 28.8281 30 28.8281C30.6471 28.8281 31.1719 28.3034 31.1719 27.6562V26.4844H32.3438C32.9909 26.4844 33.5156 25.9596 33.5156 25.3125C33.5156 24.6654 32.9909 24.1406 32.3438 24.1406Z" fill="url(#paint5_linear_1_12934)"/>
<defs>
<linearGradient id="paint0_linear_1_12934" x1="19.4531" y1="39.3797" x2="21.7969" y2="39.3797" gradientUnits="userSpaceOnUse">
<stop stop-color="#50C577"/>
<stop offset="1" stop-color="#2DBEFC"/>
</linearGradient>
<linearGradient id="paint1_linear_1_12934" x1="7.73437" y1="30.1215" x2="52.2656" y2="30.1215" gradientUnits="userSpaceOnUse">
<stop stop-color="#50C577"/>
<stop offset="1" stop-color="#2DBEFC"/>
</linearGradient>
<linearGradient id="paint2_linear_1_12934" x1="19.4531" y1="46.411" x2="40.5469" y2="46.411" gradientUnits="userSpaceOnUse">
<stop stop-color="#50C577"/>
<stop offset="1" stop-color="#2DBEFC"/>
</linearGradient>
<linearGradient id="paint3_linear_1_12934" x1="24.1406" y1="39.3797" x2="40.5469" y2="39.3797" gradientUnits="userSpaceOnUse">
<stop stop-color="#50C577"/>
<stop offset="1" stop-color="#2DBEFC"/>
</linearGradient>
<linearGradient id="paint4_linear_1_12934" x1="21.7969" y1="25.3457" x2="38.2031" y2="25.3457" gradientUnits="userSpaceOnUse">
<stop stop-color="#50C577"/>
<stop offset="1" stop-color="#2DBEFC"/>
</linearGradient>
<linearGradient id="paint5_linear_1_12934" x1="26.4844" y1="25.3267" x2="33.5156" y2="25.3267" gradientUnits="userSpaceOnUse">
<stop stop-color="#50C577"/>
<stop offset="1" stop-color="#2DBEFC"/>
</linearGradient>
</defs>
</svg>
