<svg xmlns="http://www.w3.org/2000/svg" width="50" height="50" viewBox="0 0 50 50" fill="none">
  <g clip-path="url(#clip0_1_12813)">
    <path d="M40.9248 12.3036C40.6702 11.9632 40.2809 11.7514 39.8574 11.7213C39.4253 11.6856 39.0175 11.8458 38.7171 12.1463L35.7869 15.0765C35.2146 15.6488 35.2146 16.576 35.7869 17.1482C36.3592 17.7205 37.2864 17.7205 37.8587 17.1482L39.5942 15.4127L45.6139 23.4378H27.926C27.2922 23.4378 26.7299 23.8456 26.5338 24.4479C26.3092 25.1351 26.1545 25.822 26.0537 26.5031C25.719 26.4208 25.3712 26.3681 25.0044 26.3681C24.6347 26.3681 24.284 26.4212 23.9469 26.5049C23.846 25.8234 23.6912 25.1357 23.4663 24.448C23.2703 23.8457 22.708 23.4379 22.0742 23.4379H4.39474L10.4144 15.4128L12.15 17.1483C12.7223 17.7206 13.6495 17.7206 14.2217 17.1483C14.794 16.5761 14.794 15.6489 14.2217 15.0766L11.2915 12.1464C10.9911 11.8459 10.5977 11.6828 10.1512 11.7214C9.72769 11.7515 9.33856 11.9633 9.08383 12.3037C9.08383 12.3037 0.262085 24.065 0.248899 24.0846C-0.0229253 24.4895 -0.0758642 25.0031 0.10864 25.4552C4.01176 35.047 9.63324 38.2842 14.2889 38.2842C18.925 38.2842 23.1026 35.0689 23.9061 29.954C24.2522 29.3942 24.6528 29.2983 25.0043 29.2983C25.3525 29.2983 25.748 29.3927 26.0915 29.9362C26.8823 35.0249 31.0359 38.2842 35.711 38.2842C40.3682 38.2842 45.9882 35.047 49.8913 25.4552C50.0759 25.0031 50.023 24.4895 49.751 24.0846C49.7393 24.0672 40.9248 12.3036 40.9248 12.3036Z" fill="#ECF3F6"/>
  </g>
  <defs>
    <clipPath id="clip0_1_12813">
      <rect width="50" height="50" fill="white"/>
    </clipPath>
  </defs>
</svg>