<svg xmlns="http://www.w3.org/2000/svg" width="50" height="50" viewBox="0 0 50 50" fill="none">
  <path d="M49.4774 13.2583C48.6446 9.99255 46.8697 7.17654 44.3443 5.1147C41.8842 3.10626 38.8706 2 35.8585 2C33.5491 2 31.3465 2.6218 29.3114 3.84784C27.7042 4.81639 26.2585 6.13361 24.9958 7.77774C22.1237 4.03438 18.3319 2 14.138 2C11.1271 2 8.11463 3.10626 5.65491 5.1147C3.13035 7.17654 1.35575 9.99217 0.523002 13.2579C-0.0877314 15.6532 -0.365823 19.0147 0.83924 23.0575H8.40645L11.1389 17.5922C11.3873 17.0959 11.8942 16.7823 12.4489 16.7823C13.0039 16.7823 13.5109 17.0959 13.7589 17.5922L18.7241 27.5222L23.6893 17.5922C23.9372 17.0959 24.4442 16.7823 24.9992 16.7823C25.5539 16.7823 26.0609 17.0959 26.3092 17.5922L29.0417 23.0575H39.2441C40.0532 23.0575 40.7085 23.7133 40.7085 24.522C40.7085 25.3311 40.0532 25.9868 39.2441 25.9868H28.1364C27.5818 25.9868 27.0748 25.6732 26.8265 25.177L24.9992 21.5221L20.034 31.4521C19.7857 31.9484 19.2787 32.2616 18.7241 32.2616C18.169 32.2616 17.6621 31.9484 17.4141 31.4521L12.4493 21.5221L10.6216 25.1773C10.3733 25.6732 9.86634 25.9868 9.31168 25.9868H1.93635C2.42577 27.0725 3.02392 28.1963 3.75024 29.354C7.73736 35.7128 14.6496 41.6046 24.2939 46.8654C24.5125 46.9848 24.754 47.0443 24.9954 47.0443C25.2369 47.0443 25.478 46.9848 25.6966 46.8658C35.3439 41.6042 42.2581 35.7128 46.2471 29.3544C50.5569 22.4842 50.3826 16.8094 49.4774 13.2583Z" fill="white"/>
</svg>