<svg xmlns="http://www.w3.org/2000/svg" width="45" height="206" viewBox="0 0 45 206" fill="none">
  <path opacity="0.7" d="M4.27509 87.5303C1.9135 87.5303 -0.000361733 85.6165 -0.000361629 83.2549C-0.000361526 80.8934 1.9135 78.9795 4.27509 78.9795C6.63668 78.9795 8.55054 80.8934 8.55054 83.2549C8.55054 85.6165 6.63668 87.5303 4.27509 87.5303Z" fill="url(#paint0_linear_1_13264)"/>
  <path opacity="0.7" d="M4.27509 127.021C1.9135 127.021 -0.000361733 125.107 -0.000361629 122.745C-0.000361526 120.383 1.9135 118.47 4.27509 118.47C6.63668 118.47 8.55054 120.383 8.55054 122.745C8.55054 125.107 6.63668 127.021 4.27509 127.021Z" fill="url(#paint1_linear_1_13264)"/>
  <path opacity="0.7" d="M4.27509 166.51C1.9135 166.51 -0.000361733 164.597 -0.000361629 162.235C-0.000361526 159.873 1.9135 157.959 4.27509 157.959C6.63668 157.959 8.55054 159.873 8.55054 162.235C8.55054 164.597 6.63668 166.51 4.27509 166.51Z" fill="url(#paint2_linear_1_13264)"/>
  <path opacity="0.7" d="M4.27509 206C1.9135 206 -0.000361733 204.086 -0.000361629 201.725C-0.000361526 199.363 1.9135 197.449 4.27509 197.449C6.63668 197.449 8.55054 199.363 8.55054 201.725C8.55054 204.086 6.63668 206 4.27509 206Z" fill="url(#paint3_linear_1_13264)"/>
  <path opacity="0.7" d="M40.5078 87.5303C38.1462 87.5303 36.2324 85.6165 36.2324 83.2549C36.2324 80.8934 38.1462 78.9795 40.5078 78.9795C42.8694 78.9795 44.7832 80.8934 44.7832 83.2549C44.7904 85.6165 42.8766 87.5303 40.5078 87.5303Z" fill="url(#paint4_linear_1_13264)"/>
  <path opacity="0.7" d="M40.5078 127.021C38.1462 127.021 36.2324 125.107 36.2324 122.745C36.2324 120.383 38.1462 118.47 40.5078 118.47C42.8694 118.47 44.7832 120.383 44.7832 122.745C44.7904 125.107 42.8766 127.021 40.5078 127.021Z" fill="url(#paint5_linear_1_13264)"/>
  <path opacity="0.7" d="M40.5078 166.51C38.1462 166.51 36.2324 164.597 36.2324 162.235C36.2324 159.873 38.1462 157.959 40.5078 157.959C42.8694 157.959 44.7832 159.873 44.7832 162.235C44.7904 164.597 42.8766 166.51 40.5078 166.51Z" fill="url(#paint6_linear_1_13264)"/>
  <path opacity="0.7" d="M40.5078 206C38.1462 206 36.2324 204.086 36.2324 201.725C36.2324 199.363 38.1462 197.449 40.5078 197.449C42.8694 197.449 44.7832 199.363 44.7832 201.725C44.7904 204.086 42.8766 206 40.5078 206Z" fill="url(#paint7_linear_1_13264)"/>
  <path opacity="0.7" d="M4.27509 8.55081C1.9135 8.55081 -0.000361733 6.63704 -0.000361629 4.27545C-0.000361526 1.91386 1.9135 -2.90114e-07 4.27509 -1.86886e-07C6.63668 -8.36574e-08 8.55054 1.91386 8.55054 4.27545C8.55054 6.63704 6.63668 8.55081 4.27509 8.55081Z" fill="url(#paint8_linear_1_13264)"/>
  <path opacity="0.7" d="M4.27509 48.0406C1.9135 48.0406 -0.000361733 46.1267 -0.000361629 43.7651C-0.000361526 41.4035 1.9135 39.4897 4.27509 39.4897C6.63668 39.4897 8.55054 41.4035 8.55054 43.7651C8.55054 46.1267 6.63668 48.0406 4.27509 48.0406Z" fill="url(#paint9_linear_1_13264)"/>
  <path opacity="0.7" d="M40.5078 8.55081C38.1463 8.55081 36.2324 6.63704 36.2324 4.27545C36.2324 1.91386 38.1463 -2.9011e-07 40.5078 -1.86882e-07C42.8694 -8.36536e-08 44.7832 1.91386 44.7832 4.27545C44.7832 6.63704 42.8767 8.55081 40.5078 8.55081Z" fill="url(#paint10_linear_1_13264)"/>
  <path opacity="0.7" d="M40.5078 48.0406C38.1463 48.0406 36.2324 46.1267 36.2324 43.7651C36.2324 41.4035 38.1463 39.4897 40.5078 39.4897C42.8694 39.4897 44.7832 41.4035 44.7832 43.7651C44.7832 46.1267 42.8767 48.0406 40.5078 48.0406Z" fill="url(#paint11_linear_1_13264)"/>
  <defs>
    <linearGradient id="paint0_linear_1_13264" x1="4.25778" y1="78.9795" x2="4.25778" y2="87.5303" gradientUnits="userSpaceOnUse">
      <stop stop-color="#50C577"/>
      <stop offset="1" stop-color="#2DBEFC"/>
    </linearGradient>
    <linearGradient id="paint1_linear_1_13264" x1="4.25778" y1="118.47" x2="4.25778" y2="127.021" gradientUnits="userSpaceOnUse">
      <stop stop-color="#50C577"/>
      <stop offset="1" stop-color="#2DBEFC"/>
    </linearGradient>
    <linearGradient id="paint2_linear_1_13264" x1="4.25778" y1="157.959" x2="4.25778" y2="166.51" gradientUnits="userSpaceOnUse">
      <stop stop-color="#50C577"/>
      <stop offset="1" stop-color="#2DBEFC"/>
    </linearGradient>
    <linearGradient id="paint3_linear_1_13264" x1="4.25778" y1="197.449" x2="4.25778" y2="206" gradientUnits="userSpaceOnUse">
      <stop stop-color="#50C577"/>
      <stop offset="1" stop-color="#2DBEFC"/>
    </linearGradient>
    <linearGradient id="paint4_linear_1_13264" x1="40.4905" y1="78.9795" x2="40.4905" y2="87.5303" gradientUnits="userSpaceOnUse">
      <stop stop-color="#50C577"/>
      <stop offset="1" stop-color="#2DBEFC"/>
    </linearGradient>
    <linearGradient id="paint5_linear_1_13264" x1="40.4905" y1="118.47" x2="40.4905" y2="127.021" gradientUnits="userSpaceOnUse">
      <stop stop-color="#50C577"/>
      <stop offset="1" stop-color="#2DBEFC"/>
    </linearGradient>
    <linearGradient id="paint6_linear_1_13264" x1="40.4905" y1="157.959" x2="40.4905" y2="166.51" gradientUnits="userSpaceOnUse">
      <stop stop-color="#50C577"/>
      <stop offset="1" stop-color="#2DBEFC"/>
    </linearGradient>
    <linearGradient id="paint7_linear_1_13264" x1="40.4905" y1="197.449" x2="40.4905" y2="206" gradientUnits="userSpaceOnUse">
      <stop stop-color="#50C577"/>
      <stop offset="1" stop-color="#2DBEFC"/>
    </linearGradient>
    <linearGradient id="paint8_linear_1_13264" x1="4.25778" y1="-2.54559e-07" x2="4.25778" y2="8.55081" gradientUnits="userSpaceOnUse">
      <stop stop-color="#50C577"/>
      <stop offset="1" stop-color="#2DBEFC"/>
    </linearGradient>
    <linearGradient id="paint9_linear_1_13264" x1="4.25778" y1="39.4897" x2="4.25778" y2="48.0406" gradientUnits="userSpaceOnUse">
      <stop stop-color="#50C577"/>
      <stop offset="1" stop-color="#2DBEFC"/>
    </linearGradient>
    <linearGradient id="paint10_linear_1_13264" x1="40.4905" y1="-2.54557e-07" x2="40.4905" y2="8.55081" gradientUnits="userSpaceOnUse">
      <stop stop-color="#50C577"/>
      <stop offset="1" stop-color="#2DBEFC"/>
    </linearGradient>
    <linearGradient id="paint11_linear_1_13264" x1="40.4905" y1="39.4897" x2="40.4905" y2="48.0406" gradientUnits="userSpaceOnUse">
      <stop stop-color="#50C577"/>
      <stop offset="1" stop-color="#2DBEFC"/>
    </linearGradient>
  </defs>
</svg>