<svg width="60" height="60" viewBox="0 0 60 60" fill="none" xmlns="http://www.w3.org/2000/svg">
<g clip-path="url(#clip0_1_12959)">
<path d="M26.4846 52.969C25.8377 52.969 25.3127 53.494 25.3127 54.1409C25.3127 54.7877 25.8377 55.3127 26.4846 55.3127C27.1315 55.3127 27.6565 54.7877 27.6565 54.1409C27.6565 53.494 27.1315 52.969 26.4846 52.969Z" fill="url(#paint0_linear_1_12959)"/>
<path d="M40.547 0.000244815C32.793 0.000244815 26.4845 6.30866 26.4845 14.0627H20.5139L19.4476 3.39925C19.3962 2.88668 19.0164 2.46774 18.5114 2.36672L6.79267 0.0229791C6.15822 -0.103934 5.54064 0.307626 5.41373 0.942311C5.28681 1.577 5.69837 2.19434 6.33306 2.32125L17.2017 4.49495L18.1585 14.0627H13.8695C11.76 14.0627 10.145 15.9017 10.3745 17.962C10.6618 20.6456 14.3598 55.181 14.5411 56.8733C14.7401 58.6558 16.2424 60 18.0355 60H34.9337C36.7269 60 38.2291 58.6559 38.4287 56.8682C38.5296 55.9254 41.4444 28.7051 41.51 28.0915C48.8165 27.5949 54.6094 21.4929 54.6094 14.0627C54.6094 6.30866 48.301 0.000244815 40.547 0.000244815ZM12.7044 17.7077C12.6272 17.0136 13.1685 16.4064 13.8694 16.4064H18.3928L19.3502 25.979C18.4524 25.9361 17.5674 25.547 16.786 24.8346C15.7537 23.8933 14.539 23.3091 13.2852 23.1317L12.7044 17.7077ZM36.489 52.9688H31.172C30.5249 52.9688 30.0002 53.4934 30.0002 54.1407C30.0002 54.7879 30.5249 55.3125 31.172 55.3125H36.238L36.0988 56.6134C36.0325 57.2078 35.5316 57.6563 34.9337 57.6563H18.0355C17.4376 57.6563 16.9367 57.2079 16.8709 56.6186L16.7311 55.3125H23.1577C23.8048 55.3125 24.3296 54.7879 24.3296 54.1407C24.3296 53.4934 23.8048 52.9688 23.1577 52.9688H16.4802L13.5477 25.5822C14.1289 25.7645 14.6896 26.0948 15.2069 26.5665C16.8535 28.0677 18.9356 28.6474 20.9223 28.1564C21.9717 27.8966 22.9458 27.3617 23.8174 26.5664C25.4988 25.033 27.588 25.033 29.2693 26.5664C30.5568 27.7406 32.0656 28.3276 33.5744 28.3276C35.0833 28.3276 36.5923 27.7405 37.8799 26.5662C38.3599 26.1282 38.8789 25.8103 39.4174 25.6211C38.9984 29.5341 36.7452 50.5771 36.489 52.9688ZM40.2268 18.0629C40.2269 18.0615 40.2271 18.0603 40.2272 18.0594C40.2271 18.0604 40.2269 18.0612 40.2268 18.0629ZM40.2643 17.7125C40.2473 17.8713 40.2335 18.0002 40.2221 18.1062C40.221 18.1168 40.2197 18.1293 40.2182 18.1438C40.2165 18.159 40.2151 18.1728 40.2136 18.1869C40.2128 18.1944 40.2119 18.2017 40.2111 18.2101C40.2085 18.2341 40.2062 18.2563 40.204 18.2771C40.1548 18.737 40.0165 20.0277 39.6826 23.1459C38.4676 23.3382 37.3137 23.9104 36.3005 24.8346C34.6191 26.368 32.5299 26.368 30.8486 24.8346C28.2733 22.4862 24.8131 22.4863 22.2378 24.8349C22.0436 25.0121 21.8432 25.1674 21.6382 25.3046L20.7484 16.4065H39.1V16.4064C39.7888 16.4064 40.3435 17.0001 40.2643 17.7125ZM39.1 14.0628H33.5159V14.0627C33.5159 10.1857 36.6701 7.03147 40.5471 7.03147C44.4241 7.03147 47.5783 10.1857 47.5783 14.0627C47.5783 17.339 45.3423 20.1053 42.2825 20.8782L42.5942 17.967C42.826 15.8855 41.1939 14.0628 39.1 14.0628ZM41.7642 25.7185L42.0208 23.3211C46.5248 22.6127 49.922 18.7253 49.922 14.0628C49.922 8.89345 45.7163 4.68784 40.547 4.68784C35.3776 4.68784 31.172 8.89345 31.172 14.0628H28.8283C28.8284 7.60088 34.0853 2.34399 40.5471 2.34399C47.0089 2.34399 52.2658 7.601 52.2658 14.0627C52.2658 20.1134 47.6563 25.1076 41.7642 25.7185Z" fill="url(#paint1_linear_1_12959)"/>
<path d="M32.344 38.2034H28.8284V32.344C28.8284 31.6968 28.3036 31.1721 27.6565 31.1721H20.6252C19.9781 31.1721 19.4534 31.6968 19.4534 32.344V39.3752C19.4534 40.0225 19.9781 40.5471 20.6252 40.5471H24.1409V46.4065C24.1409 47.0537 24.6656 47.5784 25.3127 47.5784H32.344C32.9911 47.5784 33.5159 47.0537 33.5159 46.4065V39.3752C33.5159 38.728 32.9911 38.2034 32.344 38.2034ZM21.7971 38.2034V33.5159H26.4846V38.2034C25.0903 38.2034 23.2205 38.2034 21.7971 38.2034ZM31.1721 45.2346H26.4846V40.5471H31.1721V45.2346Z" fill="url(#paint2_linear_1_12959)"/>
</g>
<defs>
<linearGradient id="paint0_linear_1_12959" x1="25.3127" y1="54.1456" x2="27.6565" y2="54.1456" gradientUnits="userSpaceOnUse">
<stop stop-color="#50C577"/>
<stop offset="1" stop-color="#2DBEFC"/>
</linearGradient>
<linearGradient id="paint1_linear_1_12959" x1="5.39075" y1="30.1215" x2="54.6094" y2="30.1215" gradientUnits="userSpaceOnUse">
<stop stop-color="#50C577"/>
<stop offset="1" stop-color="#2DBEFC"/>
</linearGradient>
<linearGradient id="paint2_linear_1_12959" x1="19.4534" y1="39.4085" x2="33.5159" y2="39.4085" gradientUnits="userSpaceOnUse">
<stop stop-color="#50C577"/>
<stop offset="1" stop-color="#2DBEFC"/>
</linearGradient>
<clipPath id="clip0_1_12959">
<rect width="60" height="60" fill="white"/>
</clipPath>
</defs>
</svg>
