<svg xmlns="http://www.w3.org/2000/svg" width="50" height="50" viewBox="0 0 50 50" fill="none">
  <g clip-path="url(#clip0_1_12817)">
    <path d="M25.2887 15.4746C20.0354 15.4746 15.7618 19.7482 15.7618 25.0011C15.7618 30.2543 20.0354 34.5279 25.2887 34.5279C30.5415 34.5279 34.8151 30.2543 34.8151 25.0011C34.8151 19.7482 30.5415 15.4746 25.2887 15.4746ZM30.9447 23.207L24.1198 30.0319C23.8334 30.3184 23.4576 30.4618 23.0822 30.4618C22.7069 30.4618 22.3315 30.3187 22.045 30.0319L19.4369 27.4238C18.864 26.8512 18.864 25.9223 19.4369 25.3493C20.0095 24.7764 20.9384 24.7764 21.5114 25.3493L23.0822 26.9202L28.8703 21.1326C29.4429 20.5596 30.3717 20.5596 30.9447 21.1326C31.5177 21.7052 31.5177 22.634 30.9447 23.207Z" fill="white"/>
    <path d="M46.5281 13.5663L46.5266 13.5274C46.5048 13.0471 46.4903 12.539 46.4815 11.9736C46.4407 9.21676 44.2492 6.93634 41.4919 6.78223C35.7432 6.46141 31.296 4.58687 27.4962 0.883195L27.4638 0.852296C26.2244 -0.284099 24.3548 -0.284099 23.1151 0.852296L23.0826 0.883195C19.2828 4.58687 14.8357 6.46141 9.08693 6.78261C6.33005 6.93634 4.13813 9.21676 4.09732 11.974C4.08893 12.5355 4.07405 13.0437 4.0523 13.5274L4.05002 13.6178C3.93825 19.4798 3.79939 26.7754 6.24003 33.3973C7.58203 37.0388 9.6145 40.2042 12.2806 42.8062C15.3171 45.7695 19.2943 48.122 24.1015 49.7982C24.2579 49.8527 24.4204 49.897 24.586 49.9301C24.8195 49.9767 25.0544 50 25.2894 50C25.5244 50 25.7598 49.9767 25.9929 49.9301C26.1584 49.897 26.3221 49.8523 26.4792 49.7974C31.2808 48.1182 35.2538 45.7645 38.2876 42.8016C40.9525 40.1989 42.985 37.0327 44.3281 33.3904C46.7779 26.7487 46.6395 19.4394 46.5281 13.5663ZM25.2887 37.4615C18.4177 37.4615 12.828 31.8718 12.828 25.0008C12.828 18.1298 18.4177 12.5401 25.2887 12.5401C32.1593 12.5401 37.7493 18.1298 37.7493 25.0008C37.7493 31.8718 32.1593 37.4615 25.2887 37.4615Z" fill="white"/>
  </g>
  <defs>
    <clipPath id="clip0_1_12817">
      <rect width="50" height="50" fill="white"/>
    </clipPath>
  </defs>
</svg>