<svg xmlns="http://www.w3.org/2000/svg" width="24" height="24" viewBox="0 0 24 24" fill="none">
  <g clip-path="url(#clip0_1_12774)">
    <path d="M8.75 17.6123V22.2503C8.75 22.5743 8.958 22.8613 9.266 22.9633C9.343 22.9883 9.422 23.0003 9.5 23.0003C9.734 23.0003 9.96 22.8903 10.104 22.6943L12.817 19.0023L8.75 17.6123Z" fill="white"/>
    <path d="M23.6849 0.139089C23.4549 -0.0239114 23.1529 -0.0459114 22.9029 0.0850886L0.402922 11.8351C0.136922 11.9741 -0.0200776 12.2581 0.00192241 12.5571C0.0249224 12.8571 0.223922 13.1131 0.506922 13.2101L6.76192 15.3481L20.0829 3.95809L9.77492 16.3771L20.2579 19.9601C20.3359 19.9861 20.4179 20.0001 20.4999 20.0001C20.6359 20.0001 20.7709 19.9631 20.8899 19.8911C21.0799 19.7751 21.2089 19.5801 21.2419 19.3611L23.9919 0.861089C24.0329 0.581089 23.9149 0.303089 23.6849 0.139089Z" fill="white"/>
  </g>
  <defs>
    <clipPath id="clip0_1_12774">
      <rect width="24" height="24" fill="white"/>
    </clipPath>
  </defs>
</svg>