<svg xmlns="http://www.w3.org/2000/svg" width="60" height="60" viewBox="0 0 60 60" fill="none">
  <path d="M33.5155 44.7656C32.8686 44.7656 32.3436 45.2906 32.3436 45.9375C32.3436 46.5844 32.8686 47.1094 33.5155 47.1094C34.1624 47.1094 34.6874 46.5844 34.6874 45.9375C34.6874 45.2906 34.1624 44.7656 33.5155 44.7656Z" fill="url(#paint0_linear_1_12905)"/>
  <path d="M49.9853 49.4547L49.025 46.5736C51.8757 43.5242 53.4374 39.5818 53.4374 35.3906C53.4374 28.0097 48.5084 21.5569 41.5766 19.5396L44.4491 14.5641C44.7727 14.0036 44.5806 13.287 44.0201 12.9633L43.0053 12.3774L44.1772 10.3477L45.192 10.9336C45.7512 11.2565 46.4684 11.0665 46.7928 10.5047L49.1365 6.44538C49.46 5.88522 49.2679 5.16815 48.7076 4.8446L40.5889 0.157107C40.0286 -0.16633 39.3117 0.0256225 38.9881 0.586012L36.6444 4.64538C36.3209 5.20553 36.5129 5.9226 37.0733 6.24616L38.0881 6.83209L36.9162 8.86178L35.9014 8.27584C35.3414 7.9524 34.624 8.14436 34.3006 8.70475L25.5116 23.9284L24.4967 23.3425C23.9368 23.0189 23.2195 23.211 22.8959 23.7714L20.5522 27.8309C20.2285 28.3914 20.4206 29.108 20.9811 29.4317L33.1592 36.4629C33.7158 36.7845 34.4344 36.5978 34.76 36.034L37.1037 31.9745C37.4274 31.414 37.2353 30.6974 36.6748 30.3737L35.66 29.7878L36.5254 28.2888C40.6113 27.996 44.0624 31.2772 44.0624 35.3906C44.0624 36.6448 43.7391 37.8421 43.1226 38.9043C41.6014 38.1364 39.9214 37.7344 38.2031 37.7344C35.7486 37.7344 33.3656 38.5641 31.4422 40.0781H20.0062C17.773 40.0781 15.7647 41.3191 14.7649 43.3173L13.7173 45.4138C13.5357 45.7771 13.5552 46.2083 13.7687 46.5538C13.9822 46.8992 14.3594 47.1095 14.7655 47.1095H27.2025L26.4212 49.4532H10.0781V49.4531C8.13961 49.4531 6.5625 51.0302 6.5625 52.9687V58.8281C6.5625 59.4752 7.08715 60 7.73437 60H52.2655C52.9128 60 53.4374 59.4752 53.4374 58.8281V52.9687C53.4374 51.0515 51.8945 49.4888 49.9853 49.4547ZM40.432 2.77273L46.521 6.28834L45.3491 8.31791C43.9936 7.53534 40.8415 5.7153 39.2601 4.80229L40.432 2.77273ZM40.118 8.00397L42.1476 9.17584L40.9757 11.2055L38.9461 10.0337L40.118 8.00397ZM33.3164 33.8473L23.1679 27.9879L24.3398 25.9582C25.417 26.5801 32.0491 30.4094 33.473 31.2315C33.4732 31.2317 33.4733 31.2317 33.4735 31.2318C33.4736 31.2318 33.4737 31.2319 33.4739 31.2319L34.4882 31.8176L33.3164 33.8473ZM33.6303 28.6159L27.5412 25.1003L35.7445 10.8915C38.1294 12.2684 39.5286 13.0763 40.3029 13.5234C40.1259 13.4211 39.9871 13.341 39.9711 13.3318C40.0005 13.3488 40.4585 13.6131 41.8335 14.4071C40.6224 16.505 34.6569 26.8378 33.6303 28.6159ZM37.8665 25.9662L40.3645 21.6394C46.6284 23.1638 51.0937 28.8202 51.0937 35.3906C51.0937 38.5714 50.0433 41.5854 48.1056 44.0491C47.4067 42.5521 46.373 41.2263 45.0912 40.1827C45.9544 38.7396 46.4062 37.1045 46.4062 35.3906C46.4062 30.4565 42.6459 26.3944 37.8665 25.9662ZM38.2031 40.0781C41.9406 40.0781 45.1914 42.4849 46.3455 45.9465L47.5143 49.4531H28.8919L30.0605 45.9471C31.2391 42.412 34.5455 40.0781 38.2031 40.0781ZM16.6613 44.7656C16.7424 44.6707 17.4886 42.4101 20.0063 42.4101H29.2347C28.7294 43.1365 28.3127 43.936 27.9958 44.7656H16.6613ZM51.0937 57.6562H8.90625V52.9687C8.90625 52.3226 9.43195 51.7968 10.0781 51.7968C11.0426 51.7968 47.9293 51.7968 49.9218 51.7968C50.5681 51.7968 51.0937 52.3226 51.0937 52.9687V57.6562Z" fill="url(#paint1_linear_1_12905)"/>
  <path d="M40.4457 13.6057C40.5165 13.6466 40.5814 13.684 40.64 13.7179C40.5754 13.6806 40.5097 13.6426 40.4457 13.6057Z" fill="url(#paint2_linear_1_12905)"/>
  <path d="M40.438 13.6013C40.4405 13.6028 40.443 13.6041 40.4455 13.6056C40.4429 13.6041 40.4405 13.6028 40.438 13.6013Z" fill="url(#paint3_linear_1_12905)"/>
  <path d="M40.303 13.5234C40.3065 13.5255 40.3101 13.5275 40.3136 13.5296C40.3101 13.5275 40.3065 13.5254 40.303 13.5234Z" fill="url(#paint4_linear_1_12905)"/>
  <path d="M40.3143 13.53C40.3573 13.5549 40.3987 13.5788 40.4378 13.6014C40.3955 13.5769 40.3541 13.5529 40.3143 13.53Z" fill="url(#paint5_linear_1_12905)"/>
  <path d="M40.64 13.718C40.6509 13.7243 40.6618 13.7306 40.6726 13.7368C40.6617 13.7306 40.6513 13.7245 40.64 13.718Z" fill="url(#paint6_linear_1_12905)"/>
  <path d="M41.1265 13.9988C41.1302 14.001 41.1334 14.0028 41.136 14.0042C41.1335 14.0028 41.1303 14.001 41.1265 13.9988Z" fill="url(#paint7_linear_1_12905)"/>
  <path d="M41.097 13.9817C41.1096 13.989 41.1194 13.9947 41.127 13.999C41.1192 13.9944 41.1093 13.9887 41.097 13.9817Z" fill="url(#paint8_linear_1_12905)"/>
  <path d="M41.1366 14.0046C41.1467 14.0105 41.1474 14.0109 41.1366 14.0046V14.0046Z" fill="url(#paint9_linear_1_12905)"/>
  <path d="M40.933 13.8872C40.9418 13.8923 40.9505 13.8973 40.9587 13.9021C40.9504 13.8972 40.9418 13.8922 40.933 13.8872Z" fill="url(#paint10_linear_1_12905)"/>
  <path d="M40.9583 13.9016C41.0161 13.935 41.0642 13.9628 41.097 13.9818C41.0669 13.9643 41.0215 13.9382 40.9583 13.9016Z" fill="url(#paint11_linear_1_12905)"/>
  <path d="M40.895 13.8652C40.908 13.8727 40.9207 13.88 40.933 13.8871C40.9209 13.8801 40.9083 13.8729 40.895 13.8652Z" fill="url(#paint12_linear_1_12905)"/>
  <path d="M40.6724 13.7366C40.76 13.7872 40.8338 13.8297 40.8949 13.865C40.8276 13.8262 40.7516 13.7823 40.6724 13.7366Z" fill="url(#paint13_linear_1_12905)"/>
  <path d="M42.8905 44.7656H38.203C37.5558 44.7656 37.0311 45.2904 37.0311 45.9375C37.0311 46.5846 37.5558 47.1094 38.203 47.1094H42.8905C43.5377 47.1094 44.0624 46.5846 44.0624 45.9375C44.0624 45.2904 43.5377 44.7656 42.8905 44.7656Z" fill="url(#paint14_linear_1_12905)"/>
  <defs>
    <linearGradient id="paint0_linear_1_12905" x1="32.3436" y1="45.9422" x2="34.6874" y2="45.9422" gradientUnits="userSpaceOnUse">
      <stop stop-color="#50C577"/>
      <stop offset="1" stop-color="#2DBEFC"/>
    </linearGradient>
    <linearGradient id="paint1_linear_1_12905" x1="6.5625" y1="30.1214" x2="53.4374" y2="30.1214" gradientUnits="userSpaceOnUse">
      <stop stop-color="#50C577"/>
      <stop offset="1" stop-color="#2DBEFC"/>
    </linearGradient>
    <linearGradient id="paint2_linear_1_12905" x1="40.4457" y1="13.662" x2="40.64" y2="13.662" gradientUnits="userSpaceOnUse">
      <stop stop-color="#50C577"/>
      <stop offset="1" stop-color="#2DBEFC"/>
    </linearGradient>
    <linearGradient id="paint3_linear_1_12905" x1="40.438" y1="13.6035" x2="40.4455" y2="13.6035" gradientUnits="userSpaceOnUse">
      <stop stop-color="#50C577"/>
      <stop offset="1" stop-color="#2DBEFC"/>
    </linearGradient>
    <linearGradient id="paint4_linear_1_12905" x1="40.303" y1="13.5265" x2="40.3136" y2="13.5265" gradientUnits="userSpaceOnUse">
      <stop stop-color="#50C577"/>
      <stop offset="1" stop-color="#2DBEFC"/>
    </linearGradient>
    <linearGradient id="paint5_linear_1_12905" x1="40.3143" y1="13.5659" x2="40.4378" y2="13.5659" gradientUnits="userSpaceOnUse">
      <stop stop-color="#50C577"/>
      <stop offset="1" stop-color="#2DBEFC"/>
    </linearGradient>
    <linearGradient id="paint6_linear_1_12905" x1="40.64" y1="13.7274" x2="40.6726" y2="13.7274" gradientUnits="userSpaceOnUse">
      <stop stop-color="#50C577"/>
      <stop offset="1" stop-color="#2DBEFC"/>
    </linearGradient>
    <linearGradient id="paint7_linear_1_12905" x1="41.1265" y1="14.0015" x2="41.136" y2="14.0015" gradientUnits="userSpaceOnUse">
      <stop stop-color="#50C577"/>
      <stop offset="1" stop-color="#2DBEFC"/>
    </linearGradient>
    <linearGradient id="paint8_linear_1_12905" x1="41.097" y1="13.9904" x2="41.127" y2="13.9904" gradientUnits="userSpaceOnUse">
      <stop stop-color="#50C577"/>
      <stop offset="1" stop-color="#2DBEFC"/>
    </linearGradient>
    <linearGradient id="paint9_linear_1_12905" x1="41.1366" y1="14.0069" x2="41.1444" y2="14.0069" gradientUnits="userSpaceOnUse">
      <stop stop-color="#50C577"/>
      <stop offset="1" stop-color="#2DBEFC"/>
    </linearGradient>
    <linearGradient id="paint10_linear_1_12905" x1="40.933" y1="13.8947" x2="40.9587" y2="13.8947" gradientUnits="userSpaceOnUse">
      <stop stop-color="#50C577"/>
      <stop offset="1" stop-color="#2DBEFC"/>
    </linearGradient>
    <linearGradient id="paint11_linear_1_12905" x1="40.9583" y1="13.9419" x2="41.097" y2="13.9419" gradientUnits="userSpaceOnUse">
      <stop stop-color="#50C577"/>
      <stop offset="1" stop-color="#2DBEFC"/>
    </linearGradient>
    <linearGradient id="paint12_linear_1_12905" x1="40.895" y1="13.8762" x2="40.933" y2="13.8762" gradientUnits="userSpaceOnUse">
      <stop stop-color="#50C577"/>
      <stop offset="1" stop-color="#2DBEFC"/>
    </linearGradient>
    <linearGradient id="paint13_linear_1_12905" x1="40.6724" y1="13.8011" x2="40.8949" y2="13.8011" gradientUnits="userSpaceOnUse">
      <stop stop-color="#50C577"/>
      <stop offset="1" stop-color="#2DBEFC"/>
    </linearGradient>
    <linearGradient id="paint14_linear_1_12905" x1="37.0311" y1="45.9422" x2="44.0624" y2="45.9422" gradientUnits="userSpaceOnUse">
      <stop stop-color="#50C577"/>
      <stop offset="1" stop-color="#2DBEFC"/>
    </linearGradient>
  </defs>
</svg>