<svg xmlns="http://www.w3.org/2000/svg" width="50" height="50" viewBox="0 0 50 50" fill="none">
  <path d="M46.9727 32.4219C46.9727 30.8105 45.6543 29.4922 44.043 29.4922C45.6543 29.4922 46.9727 28.1738 46.9727 26.5625C46.9727 24.9512 45.6543 23.6328 44.043 23.6328H32.0313C33.8184 18.2714 33.7891 16.5625 33.7891 13.2812C33.7891 10.8437 31.7904 8.88672 29.3945 8.88672H28.5156C27.959 8.88672 27.2559 9.32627 27.1093 10C25.66 15.6427 23.394 22.1176 17.6758 23.4291V44.6266L22.744 46.3085C24.2382 46.8064 25.791 47.0702 27.373 47.0702H41.1133C42.7313 47.0703 44.043 45.7585 44.043 44.1406C44.043 42.5226 42.7313 41.2109 41.1133 41.2109H44.043C45.6543 41.2109 46.9727 39.8926 46.9727 38.2812C46.9727 36.6699 45.6543 35.3516 44.043 35.3516C45.6543 35.3516 46.9727 34.0332 46.9727 32.4219Z" fill="white"/>
  <path d="M10.3516 20.7031H4.49219C3.68252 20.7031 3.02734 21.3583 3.02734 22.168V48.5352C3.02734 49.3448 3.68252 50 4.49219 50H10.3516C12.7748 50 14.7461 48.0287 14.7461 45.6055V25.0977C14.7461 22.6744 12.7748 20.7031 10.3516 20.7031ZM10.3516 44.1406C9.54258 44.1406 8.88672 43.4848 8.88672 42.6758C8.88672 41.8666 9.54258 41.2109 10.3516 41.2109C11.1605 41.2109 11.8164 41.8666 11.8164 42.6758C11.8164 43.4848 11.1605 44.1406 10.3516 44.1406Z" fill="white"/>
  <path d="M23.179 6.45901L21.1076 4.38762C20.5354 3.81545 19.6083 3.81545 19.0362 4.38762C18.464 4.95979 18.464 5.88684 19.0362 6.45901L21.1076 8.5304C21.6797 9.10256 22.6067 9.10256 23.179 8.5304C23.7511 7.95823 23.7511 7.03118 23.179 6.45901Z" fill="white"/>
  <path d="M39.7528 4.38762C39.1806 3.81545 38.2536 3.81545 37.6814 4.38762L35.61 6.45901C35.0379 7.03118 35.0379 7.95823 35.61 8.5304C36.1822 9.10256 37.1093 9.10256 37.6814 8.5304L39.7528 6.45901C40.325 5.88684 40.325 4.95979 39.7528 4.38762Z" fill="white"/>
  <path d="M29.3945 0C28.5741 0 27.9297 0.644434 27.9297 1.46484V4.49219C27.9297 5.3126 28.5741 5.95703 29.3945 5.95703C30.2149 5.95703 30.8594 5.3126 30.8594 4.49219V1.46484C30.8594 0.644434 30.2149 0 29.3945 0Z" fill="white"/>
</svg>